<?xml version="1.0" encoding="UTF-8"?>
<!DOCTYPE svg PUBLIC "-//W3C//DTD SVG 1.1//EN" "http://www.w3.org/Graphics/SVG/1.1/DTD/svg11.dtd">
<!-- Creator: CorelDRAW 2021.5 -->
<svg xmlns="http://www.w3.org/2000/svg" xml:space="preserve" width="9.90377in" height="3.7999in" version="1.1" style="shape-rendering:geometricPrecision; text-rendering:geometricPrecision; image-rendering:optimizeQuality; fill-rule:evenodd; clip-rule:evenodd"
viewBox="0 0 9903.35 3799.74"
 xmlns:xlink="http://www.w3.org/1999/xlink"
 xmlns:xodm="http://www.corel.com/coreldraw/odm/2003">
 <defs>
  <style type="text/css">
   <![CDATA[
    .fil1 {fill:black}
    .fil0 {fill:black;fill-rule:nonzero}
   ]]>
  </style>
 </defs>
 <g id="Layer_x0020_1">
  <metadata id="CorelCorpID_0Corel-Layer"/>
  <g id="_2425051770912">
   <path class="fil0" d="M3024.94 860.52l-88.66 -331.62c0.48,73.12 0.72,141.05 0.72,203.92l0.72 156.3 -157.92 -4.29 -6.2 -558.17c-0.96,-46.71 -1.43,-92.9 -1.43,-138.9 0,-56.01 0.72,-111.73 2.15,-167.5 24.31,-2.86 49.05,-4.29 74.79,-4.29 27.88,0 56.25,1.67 85.04,5l149.39 477.9 112.92 -480.76 157.25 0 12.39 672.81c3.33,65.02 6.43,132.23 9.05,201.06l-166.78 2.15c-1.43,-56.96 -2.62,-153.44 -4.05,-289.72l-54.53 257.54 -124.84 -1.43zm625.38 -106.73c-5.72,45.05 -11.68,91.47 -18.11,139.62l-160.54 -1.43c36.66,-296.87 81.7,-591.06 135.33,-882.21l204.39 1.19c36.94,293.29 80.51,587.73 131.27,883.88l-166.78 0c-9.29,-48.62 -17.64,-95.52 -25.02,-141.05l-100.53 0zm85.09 -109.58c-1.91,-15.02 -3.57,-29.55 -5.48,-44.09 -10.72,-92.19 -19.07,-192.48 -25.26,-301.35 -14.3,106.96 -26.46,206.06 -36.23,297.29 -1.91,15.73 -3.81,31.7 -5.72,48.14l72.69 0zm801.46 239.43l-193.48 3.33 -133.18 -309.21 1.91 312.79 -166.02 -1.43 -6.91 -866.95 172.93 3.57 -3.33 308.54 140.81 -316.88 182.99 -5.01 -192.05 402.16 196.34 469.08zm96.24 -864.81l136.04 0 183.66 -1.43 -0.71 152.72 -182.23 -1.19 0 25.03c0,50.24 0.24,115.07 0.72,194.15l147.91 -2.86 0 147.96 -146.48 2.15 0.71 223.94 173.65 -2.86 0 133.42 -312.55 0 -0.71 -871.01zm957.52 51.48l68.36 295.39 39.08 -341.39 145.34 0 -71.98 868.38c-24.26,2.62 -52.86,4.05 -85.99,4.05 -30.27,0 -64.06,-1.19 -101.72,-3.33l-43.38 -394.53 -35.47 399.3 -197.53 1.43 -61.44 -887.93 154.15 2.86 32.13 395.01 50.29 -339.24 108.15 0zm531.76 825.73l0 0 0 0 -161.02 -0.72 -3.57 -61.97 -18.11 -825.72 166.02 4.76 16.68 883.64zm481.76 -891.98l-2.86 165.59 -103.91 0.48c0.48,106.72 0.95,214.88 1.19,324.94 0.48,110.06 0.95,203.72 1.43,280.89l0 116.02 -168.88 0 0 -29.32c0,-19.54 0,-43.57 0,-71.93 0,-28.36 0,-56.72 -0.24,-85.04 -0.24,-28.6 -0.48,-52.43 -0.48,-71.98l-9.05 -457.88 -100.53 -0.72c0,-7.39 -0.48,-64.06 -1.91,-169.64 7.87,0 136.28,-0.48 385.24,-1.43zm526.95 892.69l-159.11 -4.05 0 -29.31c0,-19.54 0,-43.57 0,-71.93 0,-28.36 -0.48,-95.76 -1.43,-201.77l-93.43 1.43 6.2 300.15 -165.3 0 -17.4 -880.78 161.73 0 2.86 61.97 8.34 372.13 94.38 -2.14c-2.86,-146.05 -5.96,-292.34 -9.06,-438.39 26.88,-2.86 53.82,-4.05 80.98,-4.05 29.31,0 58.34,1.43 87.18,4.77 0.48,105.34 0.95,226.6 1.67,364.27 0.72,137.94 1.19,260.16 1.67,367.12l0.71 160.59z"/>
   <g>
    <path class="fil1" d="M3226.12 2084.21c-2.72,2.06 -6.76,3.92 -8.94,4.94l-18.65 8.79c-78.3,29.82 -418.09,49.53 -483.37,30.51l-20.98 -572.53c73.82,-20.13 478.84,-49.63 562.18,24.19 112.08,-29.01 238.83,124.03 215.86,269.48 -15.48,98 -134.78,246.91 -246.1,234.62zm-999.63 1474.97l505.77 27.59c63.19,-236.8 -109.2,-892.45 34.67,-938.84 0.98,-0.32 39.37,-8.59 39.96,-8.69l263.14 -23.4c15.4,36.55 38.05,71.12 59.34,116.56 70.05,149.47 345.19,823.8 390.45,851.51 57.27,35.09 428.65,-91.46 459.22,-96.51 -6.12,-77.76 -179.07,-410.72 -226.51,-508.43 -47.64,-98.05 -209.45,-405.12 -218.68,-505.67l221.47 -166.6c256.34,-208.15 253.45,-607.74 102.73,-851.22 -99.33,-160.46 -262.75,-242.99 -465.59,-305.77 -88.68,-27.44 -235.58,-43.16 -340.65,-42.5 -130.54,0.83 -261.99,19.81 -381.44,15.69 -64.49,-93.28 -167.1,-54.52 -290.46,-34.72 -212.22,34.06 -180.98,-36.43 -179.11,216.23 3.65,494.46 59.56,1463.1 29.16,1889 -6.44,90.19 -19.44,271.12 -3.45,365.77z"/>
    <path class="fil1" d="M745.23 1212.3c-1.91,9.52 -3.35,25.24 -4.38,46.03l-680.06 1.94c-19.83,68.08 -36.48,178.09 -43.7,241.79l-17.09 209.25c0.07,14.52 0.15,20.44 2.03,34.64 3.3,24.61 1.81,15.77 8.18,28.55 39.12,26.37 418.66,1.64 500.23,-2.72l235.58 -9.3c9.33,330.08 24.43,707.26 24.85,835.16l2.03 836.95c68.09,23.21 178.09,42.7 241.79,51.17l209.25 20c14.52,-0.1 20.44,-0.17 34.64,-2.38 24.61,-3.87 15.77,-2.13 28.55,-9.57 26.37,-45.81 1.64,-490.24 -2.72,-585.78l-30.22 -894.82c1.08,-91.32 4.7,-179.83 2.01,-270.9l18.39 -0.74c85.96,1.2 169,5.46 255.28,0.98 80.28,-4.16 157.06,-22.92 232.88,-26.64 75.9,-3.72 182.3,6.56 252.03,-6.83 1.17,-66.23 -38.71,-420.49 -56.24,-476.49 -61.33,-14.39 -417.75,-1.81 -729.88,10.28 -0.54,-35.11 -2.35,-68.33 -6.95,-96.44 -66.23,-1.37 -420.49,45.34 -476.48,65.86z"/>
    <path class="fil1" d="M6912.9 2088.49c1.67,2.94 4.68,6.24 6.29,8l13.71 15.38c88.92,85.45 412.46,254.91 567.61,377.3l157.62 227.99c177.52,278.42 48.72,656.68 -171.13,840.15 -144.89,120.92 -325.99,147.66 -538.28,143.25 -92.81,-1.96 -237.16,-33.39 -336.66,-67.2 -100.01,-33.94 -196.79,-79.35 -290.81,-113.33l133.97 -402.91c118.3,58.15 411.48,169.98 500.16,132.08 97.22,62.87 265.76,-42.33 289.87,-187.61 13.15,-79.32 -27.88,-211.95 -102.22,-271.83 -330.64,-177.21 -377.35,-218.88 -665.42,-463.26l-138.79 -239.88c-154.68,-291.76 4.04,-658.46 237.85,-823.73 154.12,-108.95 336.79,-121.09 548.05,-99.65 92.35,9.33 233.74,52.25 330.2,93.89 96.95,41.89 189.79,94.87 280.77,136.29l-165.82 390.85c-113.24,-67.4 -396.55,-202.35 -487.94,-171.67 -91.83,-70.49 -268.31,20.91 -303.98,163.76 -24.04,96.27 27.64,279.94 134.95,312.13z"/>
    <path class="fil1" d="M4805.03 2174.69c-1.55,-25.3 -3.24,-48.79 -5.07,-69.82l-0.95 -587.58c0.4,-20.56 1.95,-65.75 2.6,-118.2l-0.5 -110.05c-1.97,-75.41 -8.11,-142.58 -23.66,-155.58 -15.97,-4.24 -5.04,-3.57 -35.38,-4.89 -17.52,-0.75 -24.78,-0.47 -42.57,0.18l-255.67 23.36c-77.71,8.63 -211.73,26.82 -294.2,45.34l33.01 548.33c12.63,214.33 -10.11,432.52 6.44,638.61 4.84,229.25 40.97,373.95 83.55,601.75l87.51 208.61 57.71 97.96 0.03 0.07 81.27 108.03 104.83 139.31c261.89,322.53 764.65,318.91 1070.98,129.26 201.87,-124.97 305.73,-330.58 384.71,-585.78 34.53,-111.57 54.3,-296.4 53.47,-428.63 -1.97,-305.78 -42.8,-607.37 -39.23,-921.01l6.96 -548.98c-70.37,-15.87 -184.23,-29.7 -250.21,-35.86l-216.8 -15.07c-15.05,-0.1 -21.21,-0.1 -35.98,1.22 -25.53,2.32 -16.35,1.25 -29.67,5.99 -27.85,29.85 -7.01,321.57 -3.52,384.26l1.65 44.82 32.19 800.96c32.26,17.66 58.74,37.35 71.54,77.08 3.59,11.2 9.91,13.4 20.41,19.09 32.64,17.74 45.29,33.34 59.81,67 9.98,21.41 20.54,51.68 25.3,75.26 1.95,9.61 6.61,27.87 11.05,35.73 20.11,30.4 17.2,75.24 -16.07,96.55 -5.46,3.19 -11,5.22 -16.52,6.29 9.16,19.22 12.15,43.17 12.95,76.81 0.32,14.8 -0.67,38.68 8.36,51.45 20.09,28.4 19.34,47.69 16.2,81.85 -4.49,39.35 -0.2,47.11 27.92,74.59 39.95,39.1 40.62,55.42 50.78,110.32l13.82 74.61 -21.33 45.44c-21.16,47.31 -64.68,114.44 -122.05,122.5 -31.12,59.24 -114.81,36.21 -161.45,11.95 -3.09,-1.52 -10.5,-5.09 -16.14,-7.36 15.87,25.58 2.05,49.96 -11.83,77.41 -7.21,14.97 -17.59,42.2 -19.46,58.74 -5.14,45.79 -41.42,108.02 -93.83,74.71 -14.92,-10.01 -30.44,-34.94 -38.58,-50.6 -0.5,-0.95 -1.22,-2.32 -2.05,-3.84 -4.12,10.53 -8.01,23.8 -9.51,29.07 -10.2,35.61 -26.87,97.12 -73.44,97.12 -46.76,0 -62.31,-50.1 -76.13,-86.04 -7.39,-19.24 -12.2,-34.21 -29.1,-46.31 -1.55,-1.1 -3.3,-2.32 -5.17,-3.57 -13.05,18.19 -28.65,49.68 -31.24,63.15 -6.26,32.44 -13.15,54.95 -46.74,67.58 -34.98,12.18 -52.5,0.35 -75.63,-24.9 -16.57,-18.14 -31.49,-49.11 -38.65,-72.76 -0.7,-2.35 -1.82,-6.06 -3.19,-10.23 -29.77,43.92 -115.06,120.55 -166.56,68.7 -29.6,-28.72 -32.57,-204.87 9.68,-241.03 -20.11,-8.81 -44.02,-13.45 -62.23,-13.45 -0.3,0 -0.6,0 -0.93,0 -16.22,35.53 -50.73,51.6 -87.79,58.57 -49.8,9.33 -76.46,-12.48 -100.11,-53.88 -5.17,-9.01 -17.12,-24.33 -24.86,-30.14 -30.72,-21.83 -67.77,-75.23 -73.93,-113.04 -5.57,-34.26 4.07,-50.03 28.79,-73.26 9.73,-8.83 21.86,-25.55 27.72,-37.38 11.26,-21.74 34.66,-47.21 53.97,-61.91 3.89,-2.94 14.25,-10.78 19.42,-16.24 -0.35,-0.72 -0.7,-1.4 -0.98,-1.94 -19.54,-38.16 -27.22,-85.92 -3.94,-123.57 0.65,-1.17 2.3,-4.17 3.27,-6.61 -15.37,-41.25 -4.02,-69.37 25.28,-97.49 -4.49,-1.4 -9.13,-3.52 -13.92,-6.41 -50.66,-33.39 -16.02,-136.92 0,-180.22 20.01,-54.05 53.93,-126.01 102.31,-160.3 6.09,-4.32 18.22,-16.07 21.41,-22.68 12.05,-25.03 34.74,-43.62 60.79,-54.12l-0.95 -218.84z"/>
    <path class="fil1" d="M8633.77 1212.3c-1.91,9.52 -3.35,25.24 -4.38,46.03l-680.06 1.94c-19.83,68.08 -36.48,178.09 -43.7,241.79l-17.09 209.25c0.07,14.52 0.15,20.44 2.03,34.64 3.31,24.61 1.81,15.77 8.18,28.55 39.12,26.37 418.66,1.64 500.23,-2.72l235.57 -9.3c9.33,330.08 24.44,707.26 24.85,835.16l2.03 836.95c68.09,23.21 178.09,42.7 241.79,51.17l209.25 20c14.52,-0.1 20.44,-0.17 34.64,-2.38 24.61,-3.87 15.77,-2.13 28.55,-9.57 26.37,-45.81 1.64,-490.24 -2.72,-585.78l-30.21 -894.82c1.07,-91.32 4.7,-179.83 2.01,-270.9l18.39 -0.74c85.96,1.2 169,5.46 255.28,0.98 80.28,-4.16 157.06,-22.92 232.88,-26.64 75.89,-3.72 182.3,6.56 252.02,-6.83 1.18,-66.23 -38.71,-420.49 -56.24,-476.49 -61.33,-14.39 -417.75,-1.81 -729.88,10.28 -0.54,-35.11 -2.35,-68.33 -6.95,-96.44 -66.23,-1.37 -420.49,45.34 -476.48,65.86z"/>
    <g>
     <path class="fil0" d="M5460.97 2359.04c20.75,4.43 44.07,13.52 70.26,27.31 64.32,33.01 76.06,43.58 85.33,72.84 6.18,18.68 14.23,26.78 37.1,39.23 24.13,13.09 32.15,21.79 44.51,50.45 8.67,18.68 19.18,49.81 22.9,67.86 3.69,18.68 11.11,40.47 16.06,47.94 11.14,16.8 8.68,38.6 -4.95,47.33 -7.41,4.35 -17.92,2.48 -40.19,-8.74 -30.29,-14.93 -90.89,-21.16 -87.17,-8.71 1.23,3.12 20.41,14.94 43.29,26.15 54.42,26.78 62.43,40.47 63.69,105.24 1.23,42.31 3.69,55.4 14.83,70.97 11.74,16.8 13,24.27 9.91,57.91 -5.59,49.18 1.23,67.25 38.33,103.34 28.42,28.02 29.68,30.53 40.79,91.56l11.76 63.5 -16.68 35.48c-27.83,62.27 -68.02,102.74 -101.42,102.74 -6.18,0 -14.83,6.86 -18.55,15.57 -12.97,28.65 -59.34,28.65 -115.62,-0.64 -22.87,-11.18 -37.1,-14.93 -47,-11.81 -8.02,2.48 -25.33,5.59 -38.33,6.86 -12.96,0.6 -30.29,5.59 -37.7,11.18 -17.32,11.22 -43.92,52.32 -38.36,58.54 2.5,1.87 22.27,-5.62 43.92,-17.44 37.73,-20.56 40.19,-21.16 50.69,-10.58 9.91,9.94 9.91,12.45 -8.65,49.17 -10.5,21.79 -21.04,52.93 -22.87,70.37 -4.35,37.36 -22.9,59.78 -39.59,49.18 -5.55,-3.72 -17.92,-20.52 -26.59,-37.36 -11.73,-22.4 -20.38,-31.13 -31.51,-32.37 -19.18,-2.48 -30.31,13.09 -45.14,64.14 -14.23,50.45 -25.96,71.6 -39.56,71.6 -16.09,0 -23.5,-11.21 -43.29,-63.5 -14.22,-36.12 -22.27,-48.57 -41.45,-62.27 -12.97,-9.34 -27.2,-16.81 -30.29,-17.44 -14.23,0 -54.42,64.74 -61.2,98.98 -5.59,29.9 -9.28,35.52 -24.13,41.11 -16.06,5.59 -19.78,3.74 -37.7,-15.57 -11.14,-12.45 -24.73,-37.99 -30.92,-59.15 -19.81,-64.75 -33.41,-68.49 -65.56,-20.56 -34.64,52.32 -92.74,84.69 -113.16,64.14 -17.32,-16.81 -12.37,-181.2 5.58,-188.03 4.32,-1.24 19.15,6.22 32.75,16.81 13.63,11.21 27.23,18.04 30.92,16.2 9.91,-6.22 -4.92,-39.86 -29.65,-66.01 -24.14,-25.54 -72.97,-43.58 -116.88,-43.58 -21.64,0 -25.33,2.48 -32.14,18.68 -8.65,21.16 -29.06,34.25 -63.06,40.47 -29.05,5.59 -43.28,-2.48 -63.06,-36.72 -8.67,-15.57 -24.73,-33.64 -34.64,-41.11 -25.36,-18.05 -55.65,-64.14 -59.97,-90.28 -3.09,-19.31 -0.63,-24.27 17.92,-41.71 12.37,-11.21 27.83,-32.37 35.24,-47.33 7.44,-14.33 26.59,-36.72 43.91,-49.81 35.87,-27.38 40.82,-37.97 28.46,-62.27 -17.32,-33.6 -19.18,-66.62 -4.95,-89.65 8.04,-14.33 10.5,-24.3 7.41,-33.01 -12.37,-29.89 -6.81,-45.46 24.1,-71.6 29.69,-25.54 76.69,-99.62 62.47,-99.62 -16.09,0 -53.79,20.55 -66.15,36.12 -11.14,13.69 -15.46,15.56 -24.73,9.94 -17.95,-11.82 -11.77,-67.23 14.23,-138.22 26.56,-70.97 58.11,-121.42 89.65,-143.81 12.37,-8.74 27.2,-24.9 32.75,-36.12 13.63,-28.65 53.19,-47.94 89.66,-43.58 27.22,3.11 29.68,2.48 56.28,-26.78 24.74,-26.15 31.55,-29.89 61.83,-33.61 18.55,-1.87 59.37,-11.85 89.66,-22.43 29.96,-9.78 54.95,-15.67 75.01,-17.56 17.47,-2.22 34.59,-3.29 51.44,-3.43l7.52 6.78c0.21,0.19 0.41,0.38 0.61,0.58 1.75,1.76 5.14,5.51 7.05,8.44 -2.87,6.62 -8,15.3 -11.05,20.78 -6.37,11.48 -13.18,23.29 -20.63,34.1l-0.2 0.3c-9,13.97 -27.4,43.14 -31.19,59.2 -2.02,6.63 -8.32,17.23 -11.74,23.18 -7.37,12.82 -15.35,25.43 -23.64,37.67 -12.03,17.75 -55.96,79.69 -17.39,93.53 14.19,4.66 60.6,-11.99 73.14,-16.32 8.6,-2.97 56.04,-19.24 66.51,-15.88 0.04,1.35 -0.35,3.47 -0.58,4.51 -3.6,13.55 -6.41,27.98 -9.1,41.75 -2.62,13.46 -8.31,32.77 -14.66,44.96 -10.48,21.1 -41.62,112.13 -41.62,133.41 0,11.68 6.04,23.08 19.51,21.01 9.26,-1.42 18.94,-10.35 25.4,-16.72 11.76,-11.59 22.7,-24.96 32.97,-37.9 15.7,-19.77 30.72,-40.2 45.44,-60.72 17.03,-23.73 36.3,-51.76 50.13,-77.49l0.17 -0.33c8.73,-17.57 22.23,-38.36 34.15,-54.03 13.38,-17.59 26.68,-35.85 39.07,-54.15 9.52,-14.05 19.58,-27.72 29.03,-41.6 10.61,-14.59 25.08,-40.34 8.87,-56.53 -14.91,-14.89 -44.56,-7.05 -61.74,-1.12 -7.03,2.43 -39.13,12.86 -48.21,10.12 0.58,-6.3 10.78,-21.36 13.55,-25.24 8.06,-11.27 31.12,-41.21 44.05,-45.27l10.81 -3.39c14.52,3.37 29.14,6.7 43.95,9.86l0 0.01zm-312.46 610.11c-8.65,9.34 -21.64,36.72 -28.46,61 -7.42,24.3 -24.1,65.38 -37.1,92.16 -14.2,27.41 -27.19,63.5 -30.92,85.29 -3.09,20.55 -8.65,44.86 -11.74,54.19 -12.37,32.97 -8.04,44.19 29.06,74.08 49.46,38.6 71.1,30.49 92.74,-33.61 6.18,-18.68 14.23,-34.88 17.32,-36.12 3.72,-1.24 11.74,6.83 18.55,16.8 17.32,26.78 48.84,49.81 73.57,54.16 17.32,2.51 24.13,0 37.73,-13.05 13.59,-13.72 15.46,-19.95 12.37,-36.12 -2.46,-11.22 -4.95,-42.35 -5.55,-69.73 -0.63,-44.86 -3.09,-54.19 -21.05,-84.69 -11.13,-18.68 -32.77,-61.02 -48.23,-93.4 -15.46,-32.37 -34.01,-65.38 -41.42,-73.48 -16.69,-18.04 -38.33,-17.44 -56.88,2.51zm-213.32 -199.24c-11.74,5.59 -35.24,14.29 -51.32,19.28 -21.01,6.23 -42.65,20.55 -68.02,44.22 -21.64,19.92 -51.32,40.47 -67.38,46.7 -37.1,14.33 -42.05,28.62 -38.96,122.65 1.23,54.8 5.55,84.69 17.92,127.64 9.28,30.49 20.41,59.78 25.36,64.74 10.51,10.61 30.92,11.22 102.02,1.87 69.88,-8.7 127.39,-27.38 149.03,-48.57 19.78,-19.28 21.64,-31.73 10.5,-63.5 -8.04,-20.55 -7.41,-21.16 19.78,-44.82l27.83 -23.67 2.46 -61.63c4.35,-115.19 6.81,-103.98 -30.29,-142.6 -31.55,-31.73 -59.97,-52.92 -72.34,-52.29 -2.49,0.64 -14.86,4.99 -26.59,9.98zm444.56 1.24c-14.83,9.94 -37.7,29.26 -50.07,43.58 -19.18,21.79 -22.87,29.26 -19.78,44.82 3.09,15.57 0.6,21.16 -15.46,35.48 -23.5,20.56 -24.14,36.12 -3.72,76.6 8.64,16.81 21.01,46.06 28.46,65.38 6.78,18.68 27.82,53.56 46.37,77.19 28.43,36.75 37.7,44.22 56.88,47.33 12.36,2.48 36.46,8.7 53.15,13.69 42.05,13.7 82.24,8.11 136.66,-19.28 54.42,-27.42 68.64,-43.58 58.74,-69.13 -4.95,-13.69 -3.72,-24.9 6.18,-54.16 12.37,-36.75 12.37,-36.75 0.63,-64.77 -6.81,-15.57 -17.95,-35.49 -24.74,-44.82 -6.18,-9.34 -16.72,-33.61 -22.27,-54.16 -6.18,-20.55 -16.09,-43.58 -23.5,-51.05 -23.5,-26.14 -135.4,-63.5 -190.44,-64.14 -4.92,0 -21.64,8.1 -37.1,17.44z"/>
     <path class="fil0" d="M5216.99 2314.76c6.18,6.22 11.21,13.54 11.21,16.37 0,2.82 -20.52,41.33 -34.53,61.66 -13.45,20.88 -27.47,45.75 -29.72,55.88 -2.8,9.62 -19.05,38.4 -36.99,64.38 -31.41,46.87 -38.7,70.58 -23,76.22 4.49,2.25 33.64,-5.65 65.59,-16.39 66.17,-23.13 86.37,-22.58 80.76,2.28 -2.26,8.47 -6.18,27.11 -8.98,41.22 -2.8,14.66 -9.53,36.12 -15.7,47.99 -12.33,24.83 -40.36,113.47 -40.36,128.16 0,28.23 33.64,-5.1 102.61,-101.08 20.17,-28.23 42.05,-62.65 49.34,-76.23 6.72,-13.53 22.43,-38.94 35.3,-55.88 12.9,-16.94 30.29,-41.22 38.7,-53.64 8.41,-12.41 21.85,-31.05 29.15,-41.77 29.15,-40.1 11.21,-57.62 -39.82,-40.1 -63.34,22.01 -79.04,11.29 -47.66,-32.75 11.21,-15.51 33.93,-44.51 49.92,-49.53 -61.9,-12.88 -123,-24.29 -186.89,-27.82 0.37,0.33 0.72,0.67 1.07,1.02z"/>
    </g>
   </g>
  </g>
 </g>
</svg>
